<mxfile host="app.diagrams.net" modified="2021-09-21T08:39:05.985Z" agent="5.0 (Windows NT 10.0; Win64; x64) AppleWebKit/537.36 (KHTML, like Gecko) Chrome/93.0.4577.82 Safari/537.36 Edg/93.0.961.52" etag="qU7MN53IDWgJ04h6NMtr" version="15.2.7" type="github">
  <diagram id="LuNTBENFR6F_MdsBUx-b" name="Page-1">
    <mxGraphModel dx="529" dy="297" grid="1" gridSize="10" guides="1" tooltips="1" connect="1" arrows="1" fold="1" page="1" pageScale="1" pageWidth="827" pageHeight="1169" math="1" shadow="0">
      <root>
        <mxCell id="0" />
        <mxCell id="1" parent="0" />
        <mxCell id="-sbZYYDN0JHB_6JqgcRb-1" value="" style="endArrow=none;html=1;strokeColor=#12AAB5;entryX=0;entryY=1;entryDx=0;entryDy=0;exitX=1;exitY=0;exitDx=0;exitDy=0;" edge="1" parent="1" source="-sbZYYDN0JHB_6JqgcRb-5" target="-sbZYYDN0JHB_6JqgcRb-3">
          <mxGeometry width="50" height="50" relative="1" as="geometry">
            <mxPoint x="380" y="260" as="sourcePoint" />
            <mxPoint x="460" y="180" as="targetPoint" />
          </mxGeometry>
        </mxCell>
        <mxCell id="-sbZYYDN0JHB_6JqgcRb-2" value="" style="endArrow=none;html=1;strokeColor=#12AAB5;entryX=1;entryY=1;entryDx=0;entryDy=0;exitX=0;exitY=0;exitDx=0;exitDy=0;" edge="1" parent="1" source="-sbZYYDN0JHB_6JqgcRb-6" target="-sbZYYDN0JHB_6JqgcRb-4">
          <mxGeometry width="50" height="50" relative="1" as="geometry">
            <mxPoint x="460" y="260" as="sourcePoint" />
            <mxPoint x="380" y="180" as="targetPoint" />
          </mxGeometry>
        </mxCell>
        <mxCell id="-sbZYYDN0JHB_6JqgcRb-3" value="" style="ellipse;whiteSpace=wrap;html=1;aspect=fixed;strokeColor=#12AAB5;fillColor=none;" vertex="1" parent="1">
          <mxGeometry x="450" y="150" width="40" height="40" as="geometry" />
        </mxCell>
        <mxCell id="-sbZYYDN0JHB_6JqgcRb-4" value="" style="ellipse;whiteSpace=wrap;html=1;aspect=fixed;strokeColor=#12AAB5;fillColor=none;" vertex="1" parent="1">
          <mxGeometry x="350" y="150" width="40" height="40" as="geometry" />
        </mxCell>
        <mxCell id="-sbZYYDN0JHB_6JqgcRb-5" value="" style="ellipse;whiteSpace=wrap;html=1;aspect=fixed;strokeColor=#12AAB5;fillColor=none;" vertex="1" parent="1">
          <mxGeometry x="350" y="250" width="40" height="40" as="geometry" />
        </mxCell>
        <mxCell id="-sbZYYDN0JHB_6JqgcRb-6" value="" style="ellipse;whiteSpace=wrap;html=1;aspect=fixed;strokeColor=#12AAB5;fillColor=none;" vertex="1" parent="1">
          <mxGeometry x="450" y="250" width="40" height="40" as="geometry" />
        </mxCell>
        <mxCell id="-sbZYYDN0JHB_6JqgcRb-7" value="" style="endArrow=block;html=1;strokeColor=#2F5B7C;endFill=1;fontColor=#2F5B7C;" edge="1" parent="1">
          <mxGeometry width="50" height="50" relative="1" as="geometry">
            <mxPoint x="420" y="220" as="sourcePoint" />
            <mxPoint x="420" y="140" as="targetPoint" />
          </mxGeometry>
        </mxCell>
        <mxCell id="-sbZYYDN0JHB_6JqgcRb-8" value="" style="endArrow=block;html=1;strokeColor=#2F5B7C;endFill=1;" edge="1" parent="1">
          <mxGeometry width="50" height="50" relative="1" as="geometry">
            <mxPoint x="420.0000000000001" y="220" as="sourcePoint" />
            <mxPoint x="500" y="220" as="targetPoint" />
          </mxGeometry>
        </mxCell>
        <mxCell id="-sbZYYDN0JHB_6JqgcRb-9" value="$$x$$" style="text;html=1;strokeColor=none;fillColor=none;align=center;verticalAlign=middle;whiteSpace=wrap;rounded=0;fontColor=#2F5B7C;" vertex="1" parent="1">
          <mxGeometry x="410" y="120" width="20" height="20" as="geometry" />
        </mxCell>
        <mxCell id="-sbZYYDN0JHB_6JqgcRb-10" value="$$y$$" style="text;html=1;strokeColor=none;fillColor=none;align=center;verticalAlign=middle;whiteSpace=wrap;rounded=0;fontColor=#2F5B7C;" vertex="1" parent="1">
          <mxGeometry x="500" y="210" width="20" height="20" as="geometry" />
        </mxCell>
        <mxCell id="-sbZYYDN0JHB_6JqgcRb-12" value="$$l/2$$" style="text;html=1;strokeColor=none;fillColor=none;align=center;verticalAlign=middle;whiteSpace=wrap;rounded=0;fontColor=#2F5B7C;" vertex="1" parent="1">
          <mxGeometry x="380" y="200" width="20" height="20" as="geometry" />
        </mxCell>
        <mxCell id="-sbZYYDN0JHB_6JqgcRb-13" value="$$l/2$$" style="text;html=1;strokeColor=none;fillColor=none;align=center;verticalAlign=middle;whiteSpace=wrap;rounded=0;fontColor=#2F5B7C;" vertex="1" parent="1">
          <mxGeometry x="420" y="240" width="20" height="20" as="geometry" />
        </mxCell>
        <mxCell id="-sbZYYDN0JHB_6JqgcRb-15" value="" style="endArrow=blockThin;html=1;fontColor=#2F5B7C;strokeColor=#007D65;curved=1;endFill=1;" edge="1" parent="1">
          <mxGeometry width="50" height="50" relative="1" as="geometry">
            <mxPoint x="344" y="174" as="sourcePoint" />
            <mxPoint x="374" y="144" as="targetPoint" />
            <Array as="points">
              <mxPoint x="344" y="144" />
            </Array>
          </mxGeometry>
        </mxCell>
        <mxCell id="-sbZYYDN0JHB_6JqgcRb-16" value="" style="endArrow=blockThin;html=1;fontColor=#2F5B7C;strokeColor=#007D65;curved=1;endFill=1;" edge="1" parent="1">
          <mxGeometry width="50" height="50" relative="1" as="geometry">
            <mxPoint x="497" y="174" as="sourcePoint" />
            <mxPoint x="467" y="144" as="targetPoint" />
            <Array as="points">
              <mxPoint x="497" y="144" />
            </Array>
          </mxGeometry>
        </mxCell>
        <mxCell id="-sbZYYDN0JHB_6JqgcRb-17" value="" style="endArrow=none;html=1;fontColor=#2F5B7C;strokeColor=#007D65;curved=1;endFill=0;startArrow=blockThin;startFill=1;" edge="1" parent="1">
          <mxGeometry width="50" height="50" relative="1" as="geometry">
            <mxPoint x="468" y="298" as="sourcePoint" />
            <mxPoint x="498" y="268" as="targetPoint" />
            <Array as="points">
              <mxPoint x="498" y="298" />
            </Array>
          </mxGeometry>
        </mxCell>
        <mxCell id="-sbZYYDN0JHB_6JqgcRb-18" value="$$1$$" style="text;html=1;strokeColor=none;fillColor=none;align=center;verticalAlign=middle;whiteSpace=wrap;rounded=0;fontColor=#2F5B7C;" vertex="1" parent="1">
          <mxGeometry x="460" y="160" width="20" height="20" as="geometry" />
        </mxCell>
        <mxCell id="-sbZYYDN0JHB_6JqgcRb-19" value="$$2$$" style="text;html=1;strokeColor=none;fillColor=none;align=center;verticalAlign=middle;whiteSpace=wrap;rounded=0;fontColor=#2F5B7C;" vertex="1" parent="1">
          <mxGeometry x="360" y="160" width="20" height="20" as="geometry" />
        </mxCell>
        <mxCell id="-sbZYYDN0JHB_6JqgcRb-20" value="$$3$$" style="text;html=1;strokeColor=none;fillColor=none;align=center;verticalAlign=middle;whiteSpace=wrap;rounded=0;fontColor=#2F5B7C;" vertex="1" parent="1">
          <mxGeometry x="360" y="260" width="20" height="20" as="geometry" />
        </mxCell>
        <mxCell id="-sbZYYDN0JHB_6JqgcRb-21" value="$$4$$" style="text;html=1;strokeColor=none;fillColor=none;align=center;verticalAlign=middle;whiteSpace=wrap;rounded=0;fontColor=#2F5B7C;" vertex="1" parent="1">
          <mxGeometry x="460" y="260" width="20" height="20" as="geometry" />
        </mxCell>
        <mxCell id="-sbZYYDN0JHB_6JqgcRb-25" value="" style="endArrow=blockThin;html=1;fontColor=#2F5B7C;strokeColor=#007D65;curved=1;endFill=1;" edge="1" parent="1">
          <mxGeometry width="50" height="50" relative="1" as="geometry">
            <mxPoint x="342" y="268" as="sourcePoint" />
            <mxPoint x="372" y="298" as="targetPoint" />
            <Array as="points">
              <mxPoint x="342" y="298" />
            </Array>
          </mxGeometry>
        </mxCell>
        <mxCell id="-sbZYYDN0JHB_6JqgcRb-26" value="" style="endArrow=none;html=1;fontColor=#2F5B7C;strokeColor=#FF6666;curved=1;endFill=0;startArrow=blockThin;startFill=1;" edge="1" parent="1">
          <mxGeometry width="50" height="50" relative="1" as="geometry">
            <mxPoint x="396" y="166" as="sourcePoint" />
            <mxPoint x="366" y="196" as="targetPoint" />
            <Array as="points">
              <mxPoint x="396" y="196" />
            </Array>
          </mxGeometry>
        </mxCell>
        <mxCell id="-sbZYYDN0JHB_6JqgcRb-27" value="" style="endArrow=blockThin;html=1;fontColor=#2F5B7C;strokeColor=#FF6666;curved=1;endFill=1;" edge="1" parent="1">
          <mxGeometry width="50" height="50" relative="1" as="geometry">
            <mxPoint x="474" y="196" as="sourcePoint" />
            <mxPoint x="444" y="166" as="targetPoint" />
            <Array as="points">
              <mxPoint x="444" y="196" />
            </Array>
          </mxGeometry>
        </mxCell>
        <mxCell id="-sbZYYDN0JHB_6JqgcRb-28" value="" style="endArrow=blockThin;html=1;fontColor=#2F5B7C;strokeColor=#FF6666;curved=1;endFill=1;" edge="1" parent="1">
          <mxGeometry width="50" height="50" relative="1" as="geometry">
            <mxPoint x="474" y="244" as="sourcePoint" />
            <mxPoint x="444" y="274" as="targetPoint" />
            <Array as="points">
              <mxPoint x="444" y="244" />
            </Array>
          </mxGeometry>
        </mxCell>
        <mxCell id="-sbZYYDN0JHB_6JqgcRb-29" value="" style="endArrow=blockThin;html=1;fontColor=#2F5B7C;strokeColor=#FF6666;curved=1;endFill=1;" edge="1" parent="1">
          <mxGeometry width="50" height="50" relative="1" as="geometry">
            <mxPoint x="366" y="244" as="sourcePoint" />
            <mxPoint x="396" y="274" as="targetPoint" />
            <Array as="points">
              <mxPoint x="396" y="244" />
            </Array>
          </mxGeometry>
        </mxCell>
        <mxCell id="-sbZYYDN0JHB_6JqgcRb-30" value="" style="endArrow=blockThin;html=1;fontColor=#2F5B7C;strokeColor=#007D65;endFill=1;" edge="1" parent="1">
          <mxGeometry width="50" height="50" relative="1" as="geometry">
            <mxPoint x="550" y="150" as="sourcePoint" />
            <mxPoint x="520" y="150" as="targetPoint" />
          </mxGeometry>
        </mxCell>
        <mxCell id="-sbZYYDN0JHB_6JqgcRb-31" value="螺旋桨旋转方向" style="text;html=1;strokeColor=none;fillColor=none;align=center;verticalAlign=middle;whiteSpace=wrap;rounded=0;fontColor=#007D65;" vertex="1" parent="1">
          <mxGeometry x="550" y="140" width="90" height="20" as="geometry" />
        </mxCell>
        <mxCell id="-sbZYYDN0JHB_6JqgcRb-32" value="" style="endArrow=blockThin;html=1;fontColor=#2F5B7C;strokeColor=#FF6666;endFill=1;" edge="1" parent="1">
          <mxGeometry width="50" height="50" relative="1" as="geometry">
            <mxPoint x="550" y="170" as="sourcePoint" />
            <mxPoint x="520" y="170" as="targetPoint" />
          </mxGeometry>
        </mxCell>
        <mxCell id="-sbZYYDN0JHB_6JqgcRb-33" value="反作用力矩方向" style="text;html=1;strokeColor=none;fillColor=none;align=center;verticalAlign=middle;whiteSpace=wrap;rounded=0;fontColor=#FF6666;" vertex="1" parent="1">
          <mxGeometry x="550" y="160" width="90" height="20" as="geometry" />
        </mxCell>
        <mxCell id="-sbZYYDN0JHB_6JqgcRb-34" value="&lt;font style=&quot;font-size: 12px&quot;&gt;$$45^{\circ}$$&lt;/font&gt;" style="text;html=1;strokeColor=none;fillColor=none;align=center;verticalAlign=middle;whiteSpace=wrap;rounded=0;fontColor=#2F5B7C;fontSize=8;" vertex="1" parent="1">
          <mxGeometry x="444" y="205" width="10" height="10" as="geometry" />
        </mxCell>
        <mxCell id="-sbZYYDN0JHB_6JqgcRb-35" value="" style="endArrow=none;html=1;fontColor=#2F5B7C;strokeColor=#2F5B7C;curved=1;" edge="1" parent="1">
          <mxGeometry width="50" height="50" relative="1" as="geometry">
            <mxPoint x="430" y="210" as="sourcePoint" />
            <mxPoint x="438" y="220" as="targetPoint" />
            <Array as="points">
              <mxPoint x="440" y="210" />
            </Array>
          </mxGeometry>
        </mxCell>
      </root>
    </mxGraphModel>
  </diagram>
</mxfile>
